Coordinates
version=1
nRows=4
nColumns=124
inDegrees=yes

Units are S.I. units (second, meters, Newtons, ...)
If the header above contains a line with 'inDegrees', this indicates whether rotational values are in degrees (yes) or radians (no).

endheader 
time	pelvis_tilt	pelvis_list	pelvis_rotation	pelvis_tx	pelvis_ty	pelvis_tz	hip_flexion_l	hip_adduction_l	hip_rotation_l	hip_flexion_r	hip_adduction_r	hip_rotation_r	knee_angle_l	knee_angle_r	ankle_angle_l	ankle_angle_r	subtalar_angle_l	subtalar_angle_r	mtp_angle_l	mtp_angle_r	lumbar_extension	lumbar_bending	lumbar_rotation	arm_flex_l	arm_add_l	arm_rot_l	arm_flex_r	arm_add_r	arm_rot_r	elbow_flex_l	elbow_flex_r	glut_med1_l/activation	glut_med2_l/activation	glut_med3_l/activation	glut_min1_l/activation	glut_min2_l/activation	glut_min3_l/activation	semimem_l/activation	semiten_l/activation	bifemlh_l/activation	bifemsh_l/activation	sar_l/activation	add_long_l/activation	add_brev_l/activation	add_mag1_l/activation	add_mag2_l/activation	add_mag3_l/activation	tfl_l/activation	pect_l/activation	grac_l/activation	glut_max1_l/activation	glut_max2_l/activation	glut_max3_l/activation	iliacus_l/activation	psoas_l/activation	quad_fem_l/activation	gem_l/activation	peri_l/activation	rect_fem_l/activation	vas_med_l/activation	vas_int_l/activation	vas_lat_l/activation	med_gas_l/activation	lat_gas_l/activation	soleus_l/activation	tib_post_l/activation	flex_dig_l/activation	flex_hal_l/activation	tib_ant_l/activation	per_brev_l/activation	per_long_l/activation	per_tert_l/activation	ext_dig_l/activation	ext_hal_l/activation	ercspn_l/activation	intobl_l/activation	extobl_l/activation	glut_med1_r/activation	glut_med2_r/activation	glut_med3_r/activation	glut_min1_r/activation	glut_min2_r/activation	glut_min3_r/activation	semimem_r/activation	semiten_r/activation	bifemlh_r/activation	bifemsh_r/activation	sar_r/activation	add_long_r/activation	add_brev_r/activation	add_mag1_r/activation	add_mag2_r/activation	add_mag3_r/activation	tfl_r/activation	pect_r/activation	grac_r/activation	glut_max1_r/activation	glut_max2_r/activation	glut_max3_r/activation	iliacus_r/activation	psoas_r/activation	quad_fem_r/activation	gem_r/activation	peri_r/activation	rect_fem_r/activation	vas_med_r/activation	vas_int_r/activation	vas_lat_r/activation	med_gas_r/activation	lat_gas_r/activation	soleus_r/activation	tib_post_r/activation	flex_dig_r/activation	flex_hal_r/activation	tib_ant_r/activation	per_brev_r/activation	per_long_r/activation	per_tert_r/activation	ext_dig_r/activation	ext_hal_r/activation	ercspn_r/activation	intobl_r/activation	extobl_r/activation	
          0.53374836	         -8.57282102	          2.39510141	        -16.49432896	          0.67777744	          0.90445897	          0.01074342	         36.96237224	         -3.58799524	        -10.45132063	         -5.81437843	         -2.77916919	         -7.02982444	        -13.12007973	         -7.88179528	         11.68077458	          9.62472213	         -4.02320711	          0.41299196	          0.27010338	         21.04718232	          2.77008501	          3.22304423	          6.62034557	         -7.13547290	        -13.52890119	          2.17826561	         29.51344881	        -13.50389332	         18.95507879	         47.42701882	        107.39190650	          0.29117589	          0.16200227	          0.19873161	          0.07553838	          0.16780062	          0.24748149	          0.05000261	          0.05000513	          0.05000595	          0.38584632	          0.26407906	          0.05000205	          0.05000130	          0.05000197	          0.05000179	          0.05000118	          0.10379782	          0.05003155	          0.05000467	          0.14372718	          0.10580673	          0.05000193	          0.08706590	          0.08706975	          0.74752052	          0.18111439	          0.29268073	          0.05000082	          0.05000208	          0.05000187	          0.05000141	          0.09854293	          0.08812775	          0.05000075	          0.08706367	          0.05422939	          0.06341594	          0.54652487	          0.28077249	          0.26512574	          0.13942875	          0.55316956	          0.08278475	          0.14854744	          0.12097361	          0.16578411	          0.05000230	          0.71080410	          0.60060482	          0.05000757	          0.37804631	          0.96295106	          0.34182241	          0.31419612	          0.27754998	          0.37832652	          0.40325804	          0.05001027	          0.05000336	          0.05000425	          0.05000489	          0.05000145	          0.24430270	          0.08706647	          0.35012669	          0.05002094	          0.05000895	          0.05000411	          0.71614491	          0.80847486	          0.39115248	          0.41956329	          0.43621302	          0.05000010	          0.05000032	          0.05000026	          0.05000025	          0.05008303	          0.05008303	          0.05008303	          0.05008302	          0.05008304	          0.05008305	          0.05008311	          0.05008306	          0.05008305	          0.05008309	          0.05008310	          0.05008311	          0.05000015	          0.05000011	          0.05000028	
          0.57822739	         -8.65740069	          1.68607649	        -16.62697441	          0.74371115	          0.89875299	          0.01281005	         34.26880792	         -5.11002206	        -10.79351944	         -4.30321986	         -3.54655627	        -11.44862960	        -13.51060147	        -18.58715271	         10.41214407	          6.86780933	         -4.27298853	         -2.43114014	          0.25867771	         27.46952815	          2.58681831	          1.81375327	          7.69107447	        -12.23972709	        -13.90011308	          0.54616838	         31.68462481	        -13.56073641	         19.06441502	         44.29940920	        106.62114893	          0.25222169	          0.47486424	          0.71764006	          0.74153631	          0.63559425	          0.81021196	          0.05000180	          0.05000242	          0.05000169	          0.22158374	          0.15165638	          0.05000102	          0.05000197	          0.05000245	          0.05000702	          0.05151714	          0.15164164	          0.05000582	          0.05000320	          0.24047942	          0.14706273	          0.05001996	          0.05000168	          0.05000286	          0.42928584	          0.58114327	          0.77597493	          0.08707468	          0.08487479	          0.10507034	          0.09356404	          0.05659249	          0.05061272	          0.05000158	          0.05000068	          0.05000411	          0.05000370	          0.68425241	          0.39859412	          0.15225673	          0.43359393	          0.74728615	          0.45722155	          0.22492073	          0.06947254	          0.09520635	          0.26401945	          0.45988316	          0.34618749	          0.45971898	          0.60877944	          0.55300276	          0.21251515	          0.18043807	          0.19524493	          0.21726469	          0.23158500	          0.05000027	          0.05000061	          0.05000094	          0.05000155	          0.05000120	          0.34324689	          0.05000447	          0.20107118	          0.13420245	          0.11769167	          0.05000398	          0.41126663	          0.54560547	          0.22463128	          0.24094813	          0.25052029	          0.05000015	          0.05000013	          0.05000012	          0.05000008	          0.05008307	          0.05008307	          0.05008307	          0.05008297	          0.05008298	          0.05008304	          0.05008307	          0.05008311	          0.05008310	          0.05008310	          0.05008308	          0.05008308	          0.13074046	          0.10667042	          0.05000021	
          0.62270642	         -8.50274953	          0.74406912	        -16.41705547	          0.81174108	          0.89645728	          0.01331045	         31.44034196	         -4.77486644	         -8.99067795	         -2.35277913	         -4.59881391	        -13.25748026	        -16.48091209	        -30.15891061	          8.03366361	          1.89033460	         -5.00061616	         -8.64946278	          0.16745730	         26.93288576	          2.60864145	          0.60897768	          8.13635645	        -15.02389870	        -14.24941738	          1.86217593	         29.45993974	        -13.74434543	         17.14087083	         35.13200729	        105.90009276	          0.31682434	          0.48270671	          0.56689975	          0.42585617	          0.49768608	          0.54304434	          0.05173418	          0.07324034	          0.05820726	          0.12725128	          0.08709344	          0.05000199	          0.05000521	          0.11833127	          0.13877478	          0.10811817	          0.08708532	          0.05001068	          0.06643953	          0.33897765	          0.24770283	          0.15388804	          0.05000097	          0.05000108	          0.24653045	          0.33373837	          0.44562767	          0.05000542	          0.28666421	          0.34011275	          0.29328204	          0.05000052	          0.05000133	          0.05000027	          0.14664536	          0.05001475	          0.05001161	          0.92036942	          0.22890581	          0.08743855	          0.49881087	          0.78590654	          0.41819448	          0.15152659	          0.05000016	          0.05467527	          0.15162142	          0.26410098	          0.19880811	          0.26400881	          0.34960934	          0.31757770	          0.20702970	          0.10362672	          0.11592425	          0.12477043	          0.13299472	          0.22345388	          0.05000628	          0.05002624	          0.08708540	          0.08706790	          0.46048734	          0.05000307	          0.11547210	          0.07711504	          0.06768463	          0.07359445	          0.23618166	          0.46397421	          0.12900134	          0.13837288	          0.14387225	          0.05000053	          0.05000372	          0.05000323	          0.05000261	          0.05008312	          0.05008313	          0.05008312	          0.05008312	          0.05008320	          0.05008318	          0.05008310	          0.05008301	          0.05008301	          0.05008299	          0.05008304	          0.05008308	          0.23988594	          0.19993492	          0.05000023	
          0.66718545	         -8.19810552	         -0.06469053	        -15.84497902	          0.87568367	          0.90289883	          0.01290660	         28.48632027	         -3.95445957	         -6.70815077	          0.65206657	         -5.25602388	        -14.03896104	        -19.42660176	        -40.36368559	          9.49667772	         -0.14629681	         -6.05086064	        -14.76506251	          0.13281291	         16.44137141	          2.43592117	         -0.48781342	          7.90262356	        -14.66633011	        -14.30490335	          7.08555521	         24.25521265	        -13.60458388	         14.74812748	         21.31963928	        103.18529471	          0.36492834	          0.38842890	          0.44205743	          0.24477770	          0.28583684	          0.31187079	          0.08817240	          0.13612067	          0.09650652	          0.07308012	          0.05001666	          0.05000662	          0.20872061	          0.33206066	          0.29914162	          0.18997216	          0.05001167	          0.05001879	          0.20246495	          0.32020726	          0.25873385	          0.21972882	          0.05000076	          0.05000078	          0.14157929	          0.19165954	          0.25591543	          0.05000037	          0.21621868	          0.33403996	          0.29554005	          0.05000101	          0.05000227	          0.05000046	          0.21579068	          0.09729960	          0.05005064	          0.65404816	          0.13145640	          0.05021463	          0.28645872	          0.49243016	          0.31125432	          0.08701860	          0.05000043	          0.05000044	          0.08707301	          0.15166749	          0.11417136	          0.15161505	          0.20077336	          0.18237832	          0.13880902	          0.22626137	          0.15161157	          0.21183142	          0.35451191	          0.29909113	          0.29047389	          0.05006545	          0.05001346	          0.05000195	          0.61836380	          0.49949596	          0.40404122	          0.05001125	          0.05000453	          0.05000115	          0.31953445	          0.41572235	          0.49431867	          0.28362166	          0.08263826	          0.05000024	          0.05000012	          0.05000011	          0.05000007	          0.05008312	          0.05008313	          0.05008309	          0.05008322	          0.05008319	          0.05008316	          0.05008313	          0.05008298	          0.05008297	          0.05008303	          0.05008305	          0.05008309	          0.21522608	          0.16305568	          0.05000100	
